<!-- icon666.com - MILLIONS vector ICONS FREE --><svg id="Layer_1" viewBox="0 0 512 512" xmlns="http://www.w3.org/2000/svg" data-name="Layer 1"><path d="m420 36h-328a56 56 0 0 0 -56 56v328a56 56 0 0 0 56 56h328a56 56 0 0 0 56-56v-328a56 56 0 0 0 -56-56zm-60.611 223.446c-10.95 24.047-33.437 33.034-69.753 36.759 11.772 7.4 15.154 16.691 15.154 41.832s-.347 28.518-.262 34.293c.129 9.49 14.046 14.035 13.519 17.091-.529 3.04-113.1 2.117-113.1.209 0-4.825 13.553-7.649 13.553-17.691 0-8.7-.184-31.079-.184-31.079a107.858 107.858 0 0 1 -16.578 1.178c-24.571 0-32.34-15.666-36.042-24.426-4.806-11.419-11.04-16.785-17.673-21.069-4.069-2.638-5-5.744-.3-6.626 21.746-4.1 27.305 24.638 41.831 29.225 10.361 3.264 23.693 1.846 30.321-2.432.879-8.772 7.212-16.372 12.485-20.374-36.943-3.538-58.839-16.355-70.2-36.966-.145 0-5.348-11.2-4.914-11.2-3.551-10.457-5.128-22.435-5.137-35.835 0-23.755 7.412-32.714 17.354-45.383-7.6-27.088 2.73-45.6 2.73-45.6s15.992-3.315 46.213 18.315c16.38-7.014 60.06-7.589 80.711-1.556 12.682-8.37 35.879-20.256 45.24-16.93 2.534 4.08 7.994 15.953 3.319 42.074 3.172 5.724 19.685 17.92 19.745 52.42-.248 12.717-1.587 23.458-4.042 32.538.477.001-3.139 11.251-3.99 11.233z" fill="#000000" style="fill: rgb(0, 127, 255);"></path></svg>
