<!-- icon666.com - MILLIONS vector ICONS FREE --><svg version="1.1" id="Capa_1" xmlns="http://www.w3.org/2000/svg" xmlns:xlink="http://www.w3.org/1999/xlink" x="0px" y="0px" viewBox="0 0 409.6 409.6" style="enable-background:new 0 0 409.6 409.6;" xml:space="preserve"><g><g><path d="M375.465,0H34.135C15.365,0,0,15.365,0,34.135v341.33c0,18.77,15.365,34.135,34.135,34.135h341.33 c18.77,0,34.135-15.365,34.135-34.135V34.135C409.6,15.365,394.235,0,375.465,0z M358.4,204.8c0,5.765-0.384,11.464-0.998,17.065 C348.902,298.665,283.863,358.4,204.8,358.4c-84.833,0-153.6-68.767-153.6-153.6S119.967,51.2,204.8,51.2 c42.414,0,80.814,17.198,108.616,45l-24.131,24.136c-21.637-21.637-51.502-35-84.485-35c-65.966,0-119.465,53.499-119.465,119.465 S138.834,324.265,204.8,324.265c60.15,0,109.798-44.529,118.098-102.4H204.8v-34.13h118.098H358.4V204.8z" fill="#000000" style="fill: rgb(0, 127, 255);"></path></g></g></svg>
